<svg version="1" xmlns="http://www.w3.org/2000/svg" width="1706.667" height="1706.667" viewBox="0 0 1280.000000 1280.000000"><path d="M357 300.8c0 .4-20.3.6-45.1.5-36.8-.2-45.8.1-48.5 1.2-1.9.8-3.4 1.1-3.4.8 0-1.3-6.2 6.3-7.7 9.6-1.6 3.3-1.8 9.2-1.6 75.1.1 39.3.3 72.2.4 73.1.5 3.3 5.5 9.3 9.8 11.6l4.4 2.3H464l-.3 3.5c-.3 2.1 0 3.5.7 3.5s.8.3.1.8c-.7.5-1.1 38.5-1.2 113.7-.1 124.2-.5 150-2.6 163.5-.5 2.7-4.2 11-4.9 11-.5 0-.8.6-.8 1.3 0 2.2-9.1 10-15 12.9-3 1.5-7.5 3.2-10 3.7-6.4 1.4-23.4.7-31-1.4-3.6-.9-7.2-1.9-8-2.1-7.9-1.9-27.8-11.4-40.2-19.2-4.8-3-8.8-5.9-8.8-6.4 0-.4-.7-.8-1.5-.8s-1.5-.5-1.5-1c0-.6-.6-1-1.4-1-.8 0-1.6-.3-1.8-.8-.1-.4-2.4-2.3-5-4.3-7-5.3-14.3-11.6-22.6-19.4-10.8-10.2-13-11.6-19.6-12.1-6.2-.5-11.3 1.5-15.2 5.8-2.1 2.3-27.4 39.6-27.4 40.4 0 .2-1.8 2.7-4 5.6-2.2 2.9-4 5.9-4 6.5 0 .7-.3 1.3-.8 1.3-.4 0-1.8 1.8-3.2 4-1.4 2.2-2.8 4-3.3 4-.4 0-.6.4-.3.8.4.7-4.2 7.9-8.4 12.9-.6.7-1 1.4-1 1.7 0 .5-14.5 22.6-16 24.3-.5.7-1 1.7-1 2.2 0 .5-.6 1.6-1.3 2.3-2.4 2.3-6.8 11-7.3 14.2-1 6.4-1 7.2.5 11.3 2.2 5.6 5.6 9.8 19.1 23.3 13.7 13.6 18 17.6 28 25.5 12.2 9.8 27.3 20.5 28.8 20.5.5 0 1.5.7 2.2 1.5.7.8 1.6 1.2 2.1.9.5-.3.9 0 .9.5 0 .6.6 1.1 1.4 1.1.8 0 1.6.3 1.8.7.3.9 26.7 14 28.9 14.5.8.2 1.6.5 1.9.8.6.7 20.8 8.4 23.2 8.9.4.1 2.6.8 4.9 1.6 2.3.9 5.1 1.7 6.3 1.9 1.2.3 4.6 1.1 7.6 1.9 5.2 1.4 8.9 2.2 15.3 3.2 1.5.2 3.1.6 3.5.9.4.2 3.1.7 6.1 1.1 3 .4 6.3.9 7.5 1.1 7.5 1.5 23.6 2.3 45.1 2.3 20.1 0 24.4-.2 36.5-1.4 4.1-.4 8.7-.8 10.3-.9 1.5 0 2.7-.4 2.7-.8 0-.3.8-.5 1.7-.4 1 .2 4-.3 6.7-1 2.8-.7 5.2-1.1 5.4-.9.2.2 1.5 0 2.8-.5 2.3-.9 3.4-1.2 10.2-2.6 1.5-.3 9.2-2.8 17.2-5.5 21.1-7.4 21-7.3 21-8.1 0-.3 1.4-.9 3-1.3 1.7-.4 3-1.1 3-1.6s.7-.9 1.5-.9c1.4 0 5.4-1.8 6.5-3 .3-.3 1.6-1.1 3-1.8 7.7-3.8 24.7-15.6 33.2-23.2 3.1-2.7 5.9-5 6.3-5 .3 0 2.6 1.3 5 3 2.4 1.6 4.8 3 5.4 3 .6 0 1.1.4 1.1 1 0 .5.7 1 1.5 1 .7 0 1.9.8 2.4 1.7.6 1 1.1 1.5 1.1 1 0-.4 1.7.3 3.8 1.6 7.9 5 38.1 20.7 39.8 20.7.3 0 2 .7 3.7 1.5 5.2 2.3 18.7 7.4 18.7 6.9 0-.3 1.4.3 3.1 1.2 1.7.8 3.8 1.7 4.7 1.9 1 .2 7.4 1.9 14.3 3.8 11.5 3.2 15.6 4.2 21.4 5.1 1.1.2 2 .4 2 .5 0 .4 3.5 1 9 1.7 7 .9 6.9.9 8 1.5.6.3 3 .7 5.4.8 2.4.2 5.4.5 6.5.7 13.2 2.6 73.8 2.6 83.6-.1.8-.2 3.8-.6 6.5-1 8-1 15-2.2 15-2.5 0-.1 1.1-.4 2.5-.5 4.9-.7 7.5-1.2 9.2-2 1-.4 2.9-.8 4.3-.9 1.4 0 2.5-.3 2.5-.6s.8-.6 1.8-.7c2.6-.2 3.2-.4 21.6-6.6 9.4-3.2 17.6-5.9 18.1-6 .6-.2 2-.9 3.3-1.6 1.3-.7 3.1-1.4 4-1.6 2.1-.4 26.4-11.7 35.2-16.3 3.6-1.9 9.2-4.8 12.5-6.6 3.3-1.7 6.4-3.4 7-3.9.5-.4 5.2-3.3 10.2-6.5 22.3-13.8 48.9-35 68.2-54.3 8.7-8.7 10.2-11.4 10.2-18.3 0-8.3-1.3-10.5-14.8-25.2-4.4-4.9-9.3-10.3-10.8-11.9-1.6-1.7-5.8-6.2-9.4-10.1-3.6-3.9-10.9-11.7-16.1-17.4-5.2-5.6-11.5-12.4-14-15-2.5-2.7-8.3-9-13-14.1-4.7-5.1-10.5-11.4-13-14-2.5-2.7-5.6-5.9-6.9-7.4-5.2-5.6-15.2-7.6-21.8-4.1-1.8.9-6 4.2-9.4 7.4-3.4 3.1-7.4 6.9-9 8.3-1.5 1.4-4.4 3.9-6.4 5.5-2.1 1.6-4.5 3.6-5.5 4.4-1 .8-2.7 2.2-3.7 3-2.6 2.2-15.1 10.3-19.3 12.6-1.9 1-3.7 2.1-4 2.4-.3.3-2.3 1.4-4.5 2.5s-4.1 2.3-4.3 2.7c-.2.5-.9.8-1.6.8-.7 0-3.3 1-5.7 2.3-2.4 1.3-6.4 3.1-8.9 4.1-2.5 1-5.6 2.3-7 2.9-1.4.6-2.7 1.1-3 1.2-.3.1-3.2 1-6.5 2s-6.4 2-7 2.1c-.5.2-1.9.5-3 .8-1.1.3-3.5.9-5.3 1.5-1.8.5-3.5 1-3.7 1-.3.1-.6.1-.7.2-4.3 1.2-35.7 1.6-45.6.6-9.6-1-24.5-5-33.2-8.9-2.5-1.1-6.1-2.7-8-3.6-8.1-3.6-23.9-13.9-30.2-19.8-2-1.9-4.2-3.4-4.8-3.4-.5 0-1-.3-1-.8 0-.4-2.4-3.2-5.3-6.2-5.6-5.8-15-18-18.6-24-10.1-17-20.3-44-21-56-.6-9-.7-66.7-.1-67.5.7-.9 1.4-4.7 2.2-11.8.1-.9.7-1.7 1.2-1.7s.7-.3.3-.6c-1.4-1.5 13.5-36.4 15.6-36.4.6 0 .7-.3.4-.6-.6-.7 4.9-9.3 11.3-17.4 8-10.3 21.3-22.5 34.5-31.8 7.3-5.1 29.3-15.1 36.8-16.8.4-.1 1-.3 1.5-.4.4-.1 1.1-.2 1.5-.1.4.1 1.6-.3 2.5-.8 3.7-1.9 21.7-3.5 38.7-3.4 11.4 0 15.5.5 26.5 2.9 1.4.3 3.3.6 4.3.7.9.1 1.7.5 1.7 1s.6.7 1.2.5c.7-.3 2.4.1 3.7.8 1.4.7 2.8 1.1 3.3.8.4-.3.8-.1.8.3 0 .5.9.9 2 1 1.8.2 25.1 11.3 31.5 15.1 5.6 3.3 12 7.7 12.3 8.4.2.5.8.8 1.4.8.5 0 1.5.6 2.2 1.2.7.7 2.5 2.2 4 3.3 7.9 5.7 30.1 27.1 37.6 36.3 1.9 2.3 4 4.2 4.7 4.2.7 0 1.3.4 1.3 1 0 1.4 6.5 2.9 10.8 2.5 4.8-.5 9.2-2.2 9.2-3.5 0-.5.7-1 1.5-1 .7 0 1.8-.6 2.2-1.4.9-1.5 5.4-7.1 11.7-14.5 2.1-2.5 4.5-5.5 5.5-6.6.9-1.1 3.6-4.5 6.1-7.5 2.5-3 5.2-6.3 6-7.4.8-1 2.3-2.7 3.3-3.8.9-1 1.7-2 1.7-2.3 0-.3 1.1-1.6 2.5-2.9 1.4-1.3 2.5-2.8 2.5-3.4 0-.6.4-1.2.9-1.4.4-.2 4.2-4.4 8.2-9.3 4-5 7.8-9.5 8.4-10.2.5-.7 2.6-3.1 4.5-5.4 1.9-2.3 4.2-4.9 5.1-5.8.8-1 2.2-2.6 3-3.8 1.3-1.9 5.3-6.8 12.9-15.8 9.3-11.1 10.6-12.9 12.1-16.4 2.1-4.8 1.9-12.5-.6-17.5-2.2-4.6-17.5-20.4-29-30-11.8-9.9-12.6-10.6-13.1-10.6-.2 0-1.2-.6-2.1-1.4-5-4.1-11.8-8.9-13.9-9.8-1.3-.6-2.4-1.4-2.4-1.8 0-.4-1.3-1.3-3-2-1.6-.7-3-1.6-3-2.1s-.4-.9-.9-.9-3.9-1.8-7.5-4-7-4-7.5-4-1.1-.4-1.3-.9c-.6-1.7-34.4-17.8-47.8-22.8-3.6-1.3-7.4-2.8-8.5-3.3-2.3-1-21.2-7.2-22-7.1-.2 0-2-.6-4-1.5-1.9-.8-3.5-1.2-3.5-.9 0 .2-1.1 0-2.5-.5s-3.6-1.2-4.8-1.5c-1.2-.2-6-1.4-10.7-2.6-11.5-2.8-12-2.9-16-3.4-1.9-.2-3.5-.4-3.5-.5 0-.3-4.3-1-8.5-1.4-2.5-.2-5.2-.7-6.1-1-.9-.4-2-.6-2.5-.5-.5.1-1.1.1-1.4 0-.6-.3-9.8-.9-21.2-1.5-4.8-.2-9.2-.7-9.8-1.1-.5-.3-1-.2-1 .4 0 .9-3.7.7-6.7-.4-.7-.2-1.3-.1-1.3.3 0 .8-36.4.6-38.6-.2-.8-.3-1.4-.1-1.4.4 0 .8-3.8.5-6.7-.5-.7-.2-1.3-.1-1.3.3 0 .7-35.1.6-38.2-.2-1-.2-1.8 0-1.8.4 0 .8-3.9.5-6.7-.5-.7-.2-1.3 0-1.3.5 0 .8-3.8.5-6.7-.5-.7-.2-1.3 0-1.3.5 0 .8-3.8.5-6.7-.5-.7-.2-1.3-.1-1.3.3 0 .7-35.1.6-38.2-.2-1-.2-1.8 0-1.8.4 0 .8-3.9.5-6.7-.5-.7-.2-1.3 0-1.3.5 0 .8-3.8.5-6.7-.5-.7-.2-1.3 0-1.3.5 0 .8-3.8.5-6.7-.5-.7-.2-1.3-.1-1.3.3 0 .7-35.1.6-38.2-.2-1-.2-1.8 0-1.8.4 0 .8-3.9.5-6.7-.5-.7-.2-1.3 0-1.3.5 0 .8-3.8.5-6.7-.5-.7-.2-1.3 0-1.3.5 0 .8-3.8.5-6.7-.5-.7-.2-1.3-.1-1.3.3 0 .7-35.1.6-38.2-.2-1-.2-1.8 0-1.8.4 0 .8-3.9.5-6.7-.5-.7-.2-1.3-.1-1.3.3 0 .8-100.4.6-102.6-.2-.8-.3-1.4-.1-1.4.4 0 .8-3.8.5-6.7-.5-.7-.2-1.3-.1-1.3.3 0 .7-35.1.6-38.2-.2-1-.2-1.8 0-1.8.4 0 .8-3.9.5-6.7-.5-.7-.2-1.3-.1-1.3.3z"/></svg>